<svg width="900" height="420" viewBox="0 0 900 420" fill="none" xmlns="http://www.w3.org/2000/svg"><defs><linearGradient id="bg" x1="0" y1="0" x2="900" y2="420"><stop stop-color="#FAF5FF"/><stop offset="1" stop-color="#E9D5FF"/></linearGradient><filter id="sh"><feDropShadow dx="0" dy="16" stdDeviation="18" flood-color="#581C87" flood-opacity=".15"/></filter></defs><rect width="900" height="420" fill="url(#bg)"/><g filter="url(#sh)"><rect x="82" y="76" width="736" height="268" rx="28" fill="white"/><rect x="122" y="116" width="132" height="20" rx="10" fill="#7C3AED"/><rect x="122" y="160" width="98" height="98" rx="22" fill="#EDE9FE"/><rect x="246" y="160" width="98" height="98" rx="22" fill="#DDD6FE"/><rect x="370" y="160" width="98" height="98" rx="22" fill="#C4B5FD"/><rect x="494" y="160" width="98" height="98" rx="22" fill="#A78BFA"/><rect x="618" y="160" width="98" height="98" rx="22" fill="#8B5CF6"/><circle cx="171" cy="209" r="24" fill="#7C3AED" opacity=".72"/><rect x="270" y="196" width="50" height="26" rx="13" fill="#7C3AED" opacity=".72"/><path d="M397 209h44" stroke="#7C3AED" stroke-width="12" stroke-linecap="round"/><path d="M522 228l44-44" stroke="#7C3AED" stroke-width="12" stroke-linecap="round"/><path d="M530 184l36 44" stroke="#7C3AED" stroke-width="12" stroke-linecap="round"/><rect x="648" y="190" width="38" height="38" rx="8" fill="white" opacity=".78"/><rect x="122" y="294" width="190" height="12" rx="6" fill="#DDD6FE"/><rect x="344" y="294" width="292" height="12" rx="6" fill="#EDE9FE"/></g><text x="82" y="386" fill="#581C87" font-family="Inter,Arial" font-size="26" font-weight="700">Atomic component system</text></svg>