<svg width="900" height="420" viewBox="0 0 900 420" fill="none" xmlns="http://www.w3.org/2000/svg"><defs><linearGradient id="bg" x1="0" y1="0" x2="900" y2="420"><stop stop-color="#FFFBEB"/><stop offset="1" stop-color="#FED7AA"/></linearGradient><filter id="sh"><feDropShadow dx="0" dy="16" stdDeviation="18" flood-color="#7C2D12" flood-opacity=".14"/></filter></defs><rect width="900" height="420" fill="url(#bg)"/><g filter="url(#sh)"><rect x="88" y="70" width="724" height="276" rx="28" fill="white"/><rect x="128" y="112" width="186" height="18" rx="9" fill="#92400E" opacity=".82"/><rect x="128" y="152" width="272" height="12" rx="6" fill="#FED7AA"/><rect x="128" y="180" width="218" height="12" rx="6" fill="#FFEDD5"/><path d="M154 286a94 94 0 01188 0" stroke="#FFEDD5" stroke-width="26" stroke-linecap="round"/><path d="M154 286a94 94 0 01148-77" stroke="#F59E0B" stroke-width="26" stroke-linecap="round"/><text x="248" y="278" text-anchor="middle" fill="#92400E" font-family="Inter,Arial" font-size="34" font-weight="800">+30%</text><rect x="466" y="112" width="86" height="176" rx="16" fill="#FFEDD5"/><rect x="590" y="152" width="86" height="136" rx="16" fill="#FDBA74"/><rect x="714" y="190" width="44" height="98" rx="16" fill="#F59E0B"/><rect x="466" y="308" width="292" height="12" rx="6" fill="#FED7AA"/></g><text x="88" y="386" fill="#7C2D12" font-family="Inter,Arial" font-size="26" font-weight="700">Billing dashboard redesign</text></svg>